<svg width="24" height="24" viewBox="0 0 24 24" fill="none" xmlns="http://www.w3.org/2000/svg">
<path d="M23.0096 5.87726C22.6505 5.04593 22.1328 4.29259 21.4854 3.6594C20.8376 3.02433 20.0737 2.51965 19.2354 2.1728C18.3662 1.81171 17.4339 1.62688 16.4926 1.62905C15.1721 1.62905 13.8837 1.99065 12.764 2.67369C12.4962 2.83708 12.2417 3.01655 12.0006 3.21208C11.7596 3.01655 11.5051 2.83708 11.2372 2.67369C10.1176 1.99065 8.8292 1.62905 7.50866 1.62905C6.55777 1.62905 5.63634 1.81119 4.76581 2.1728C3.92473 2.52101 3.1667 3.0219 2.51581 3.6594C1.86758 4.29188 1.34977 5.0454 0.991699 5.87726C0.619378 6.74244 0.429199 7.66119 0.429199 8.60673C0.429199 9.49869 0.611342 10.4282 0.972949 11.3737C1.27563 12.1639 1.70956 12.9835 2.26402 13.8112C3.14259 15.121 4.35063 16.4871 5.85063 17.8719C8.33634 20.1674 10.7979 21.7532 10.9024 21.8174L11.5372 22.2246C11.8185 22.4041 12.1801 22.4041 12.4613 22.2246L13.0962 21.8174C13.2006 21.7505 15.6596 20.1674 18.1479 17.8719C19.6479 16.4871 20.856 15.121 21.7346 13.8112C22.289 12.9835 22.7256 12.1639 23.0256 11.3737C23.3872 10.4282 23.5694 9.49869 23.5694 8.60673C23.5721 7.66119 23.3819 6.74244 23.0096 5.87726V5.87726ZM12.0006 20.1058C12.0006 20.1058 2.46491 13.996 2.46491 8.60673C2.46491 5.87726 4.72295 3.66476 7.50866 3.66476C9.4667 3.66476 11.1649 4.75762 12.0006 6.35405C12.8363 4.75762 14.5346 3.66476 16.4926 3.66476C19.2783 3.66476 21.5363 5.87726 21.5363 8.60673C21.5363 13.996 12.0006 20.1058 12.0006 20.1058Z" fill="#828282"/>
</svg>
