<svg fill="none" height="24" viewBox="0 0 24 24" width="24" xmlns="http://www.w3.org/2000/svg"><path d="m11.9999 6.09208c-1.0958-1.27857-2.77383-2.09208-4.4999-2.09208-3.09162 0-5.5 2.37606-5.5 5.5 0 2.1521 1.16735 3.9561 2.80374 5.7762.95698 1.0644 2.17158 2.2324 3.52971 3.5385.93055.8949 1.92845 1.8545 2.95705 2.89l.7095.7143.7095-.7143c1.0286-1.0355 2.0265-1.9951 2.957-2.89 1.3582-1.3061 2.5728-2.4741 3.5298-3.5385 1.6364-1.8201 2.8037-3.6241 2.8037-5.7762 0-3.12394-2.4084-5.5-5.5-5.5-1.7277 0-3.4049.81358-4.5001 2.09208z" fill="#1b7685" stroke="#1b7685" stroke-width="2"/></svg>