<svg fill="none" height="24" viewBox="0 0 24 24" width="24" xmlns="http://www.w3.org/2000/svg"><path d="m23.0096 5.87726c-.3591-.83133-.8768-1.58467-1.5242-2.21786-.6478-.63507-1.4117-1.13975-2.25-1.4866-.8692-.36109-1.8015-.54592-2.7428-.54375-1.3205 0-2.6089.3616-3.7286 1.04464-.2678.16339-.5223.34286-.7634.53839-.241-.19553-.4955-.375-.7634-.53839-1.1196-.68304-2.408-1.04464-3.72854-1.04464-.95089 0-1.87232.18214-2.74285.54375-.84108.34821-1.59911.8491-2.25 1.4866-.64823.63248-1.16604 1.386-1.524111 2.21786-.372321.86518-.5625 1.78393-.5625 2.72947 0 .89196.182143 1.82147.54375 2.76697.302681.7902.736611 1.6098 1.291071 2.4375.87857 1.3098 2.08661 2.6759 3.58661 4.0607 2.48571 2.2955 4.94727 3.8813 5.05177 3.9455l.6348.4072c.2813.1795.6429.1795.9241 0l.6349-.4072c.1044-.0669 2.5634-1.65 5.0517-3.9455 1.5-1.3848 2.7081-2.7509 3.5867-4.0607.5544-.8277.991-1.6473 1.291-2.4375.3616-.9455.5438-1.87501.5438-2.76697.0027-.94554-.1875-1.86429-.5598-2.72947zm-11.009 14.22854s-9.53569-6.1098-9.53569-11.49907c0-2.72947 2.25804-4.94197 5.04375-4.94197 1.95804 0 3.65624 1.09286 4.49194 2.68929.8357-1.59643 2.534-2.68929 4.492-2.68929 2.7857 0 5.0437 2.2125 5.0437 4.94197 0 5.38927-9.5357 11.49907-9.5357 11.49907z" fill="#1b7685"/></svg>