<svg fill="none" height="33" viewBox="0 0 127 33" width="127" xmlns="http://www.w3.org/2000/svg" xmlns:xlink="http://www.w3.org/1999/xlink"><filter id="a" color-interpolation-filters="sRGB" filterUnits="userSpaceOnUse" height="17.394" width="91.2275" x="34.0903" y="1.828"><feFlood flood-opacity="0" result="BackgroundImageFix"/><feColorMatrix in="SourceAlpha" result="hardAlpha" type="matrix" values="0 0 0 0 0 0 0 0 0 0 0 0 0 0 0 0 0 0 127 0"/><feOffset dy="1"/><feGaussianBlur stdDeviation="1"/><feColorMatrix type="matrix" values="0 0 0 0 0 0 0 0 0 0 0 0 0 0 0 0 0 0 0.25 0"/><feBlend in2="BackgroundImageFix" mode="normal" result="effect1_dropShadow_1512_41071"/><feBlend in="SourceGraphic" in2="effect1_dropShadow_1512_41071" mode="normal" result="shape"/></filter><filter id="b" color-interpolation-filters="sRGB" filterUnits="userSpaceOnUse" height="11.774" width="90.4871" x="34.7513" y="20.388"><feFlood flood-opacity="0" result="BackgroundImageFix"/><feColorMatrix in="SourceAlpha" result="hardAlpha" type="matrix" values="0 0 0 0 0 0 0 0 0 0 0 0 0 0 0 0 0 0 127 0"/><feOffset dy="1"/><feGaussianBlur stdDeviation=".5"/><feColorMatrix type="matrix" values="0 0 0 0 0 0 0 0 0 0 0 0 0 0 0 0 0 0 0.25 0"/><feBlend in2="BackgroundImageFix" mode="normal" result="effect1_dropShadow_1512_41071"/><feBlend in="SourceGraphic" in2="effect1_dropShadow_1512_41071" mode="normal" result="shape"/></filter><filter id="c" color-interpolation-filters="sRGB" filterUnits="userSpaceOnUse" height="30.0137" width="27.2461" x="3.08984" y="0"><feFlood flood-opacity="0" result="BackgroundImageFix"/><feColorMatrix in="SourceAlpha" result="hardAlpha" type="matrix" values="0 0 0 0 0 0 0 0 0 0 0 0 0 0 0 0 0 0 127 0"/><feOffset/><feGaussianBlur stdDeviation="1"/><feColorMatrix type="matrix" values="0 0 0 0 0 0 0 0 0 0 0 0 0 0 0 0 0 0 0.25 0"/><feBlend in2="BackgroundImageFix" mode="normal" result="effect1_dropShadow_1512_41071"/><feBlend in="SourceGraphic" in2="effect1_dropShadow_1512_41071" mode="normal" result="shape"/></filter><filter id="d" color-interpolation-filters="sRGB" filterUnits="userSpaceOnUse" height="10.5631" width="14.8444" x="17.3573" y="19.8367"><feFlood flood-opacity="0" result="BackgroundImageFix"/><feColorMatrix in="SourceAlpha" result="hardAlpha" type="matrix" values="0 0 0 0 0 0 0 0 0 0 0 0 0 0 0 0 0 0 127 0"/><feOffset dy="-1"/><feGaussianBlur stdDeviation=".5"/><feColorMatrix type="matrix" values="0 0 0 0 0 0 0 0 0 0 0 0 0 0 0 0 0 0 0.1 0"/><feBlend in2="BackgroundImageFix" mode="normal" result="effect1_dropShadow_1512_41071"/><feBlend in="SourceGraphic" in2="effect1_dropShadow_1512_41071" mode="normal" result="shape"/></filter><filter id="e" color-interpolation-filters="sRGB" filterUnits="userSpaceOnUse" height="14.5564" width="26.9885" x="0" y="16.8433"><feFlood flood-opacity="0" result="BackgroundImageFix"/><feColorMatrix in="SourceAlpha" result="hardAlpha" type="matrix" values="0 0 0 0 0 0 0 0 0 0 0 0 0 0 0 0 0 0 127 0"/><feOffset dx="1" dy="-1"/><feGaussianBlur stdDeviation="1"/><feColorMatrix type="matrix" values="0 0 0 0 0 0 0 0 0 0 0 0 0 0 0 0 0 0 0.1 0"/><feBlend in2="BackgroundImageFix" mode="normal" result="effect1_dropShadow_1512_41071"/><feBlend in="SourceGraphic" in2="effect1_dropShadow_1512_41071" mode="normal" result="shape"/></filter><g filter="url(#a)"><path d="m46.3394 7.564v-.037c0-.666-.1172-1.27033-.3515-1.813-.222-.555-.5489-1.02983-.9805-1.4245-.4194-.39467-.9374-.69683-1.554-.9065-.6044-.222-1.295-.333-2.072-.333h-5.291v12.95h2.849v-3.885h2.1645c.7276 0 1.406-.0925 2.035-.2775.6413-.1973 1.1963-.4872 1.665-.8695.481-.3823.8571-.8572 1.1285-1.4245.2713-.56733.407-1.22717.407-1.9795zm-2.886.0555c0 .555-.1974 1.02367-.592 1.406-.3947.37-.9497.555-1.665.555h-2.257v-3.959h2.2015c.7153 0 1.2765.1665 1.6835.4995.4193.333.629.82017.629 1.4615zm15.0399 8.3805v-2.5345h-7.03v-2.7195h6.105v-2.5345h-6.105v-2.627h6.9375v-2.5345h-9.768v12.95zm13.9106 0-3.1635-4.625c.8263-.3083 1.4923-.7893 1.998-1.443.518-.666.777-1.52317.777-2.5715v-.037c0-1.34433-.4317-2.39267-1.295-3.145-.851-.75233-2.0474-1.1285-3.589-1.1285h-5.92v12.95h2.849v-4.144h2.2385l2.775 4.144zm-3.2745-8.4915c0 .555-.1912.999-.5735 1.332-.37.333-.9065.4995-1.6095.4995h-2.886v-3.7185h2.8305c.703 0 1.2518.15417 1.6465.4625.3946.30833.592.77083.592 1.3875zm15.4966-1.8685v-2.59h-9.8605v12.95h2.849v-5.0135h6.179v-2.59h-6.179v-2.7565zm12.3256 10.36v-2.5345h-7.03v-2.7195h6.105v-2.5345h-6.105v-2.627h6.9375v-2.5345h-9.768v12.95zm14.0954-2.0905-1.813-1.8315c-.505.4687-1.017.8387-1.535 1.11-.506.2713-1.129.407-1.869.407-.555 0-1.067-.1048-1.535-.3145-.457-.222-.851-.518-1.184-.888-.321-.37-.574-.8017-.759-1.295s-.277-1.0175-.277-1.5725v-.037c0-.555.092-1.073.277-1.554.185-.49333.444-.925.777-1.295s.728-.65983 1.184-.8695c.469-.20967.975-.3145 1.517-.3145.654 0 1.24.1295 1.758.3885.53.259 1.048.61667 1.554 1.073l1.813-2.0905c-.296-.296-.617-.56733-.962-.814-.346-.24667-.722-.45633-1.129-.629s-.863-.30833-1.369-.407c-.493-.09867-1.042-.148-1.646-.148-.999 0-1.912.17883-2.738.5365-.827.34533-1.536.82633-2.128 1.443-.592.60433-1.0543 1.3135-1.3873 2.1275-.333.80167-.4995 1.665-.4995 2.59v.037c0 .925.1665 1.7945.4995 2.6085s.7953 1.5232 1.3873 2.1275c.592.592 1.295 1.0607 2.109 1.406s1.696.518 2.646.518c.629 0 1.196-.0555 1.702-.1665.505-.0987.968-.2467 1.387-.444.432-.2097.827-.4563 1.184-.74.358-.2837.703-.6043 1.036-.962zm12.271-8.2325v-2.627h-10.73v2.627h3.94v10.323h2.849v-10.323z" fill="#012d7a"/></g><g fill="#fff" filter="url(#b)"><path d="m43.0684 23.7225c0-.486-.0855-.9225-.2565-1.3095-.162-.387-.4005-.72-.7155-.999-.306-.279-.684-.4905-1.134-.6345-.441-.153-.936-.2295-1.485-.2295h-3.726v9.45h1.6605v-3.0375h1.8765c.522 0 1.0125-.0675 1.4715-.2025.459-.144.8595-.351 1.2015-.621s.612-.6075.81-1.0125.297-.873.297-1.404zm-1.6875.0405c0 .513-.1845.927-.5535 1.242-.36.306-.855.459-1.485.459h-1.9305v-3.402h1.9305c.621 0 1.116.144 1.485.432.369.279.5535.702.5535 1.269zm11.5961 6.237-2.5515-3.5775c.333-.09.6345-.216.9045-.378.279-.171.5175-.3735.7155-.6075.198-.243.351-.5175.459-.8235.117-.315.1755-.6705.1755-1.0665 0-.459-.081-.873-.243-1.242-.162-.378-.396-.693-.702-.945-.297-.261-.666-.459-1.107-.594-.432-.144-.918-.216-1.458-.216h-4.212v9.45h1.6605v-3.294h2.079l2.322 3.294zm-1.9845-6.3585c0 .486-.1755.873-.5265 1.161s-.8235.432-1.4175.432h-2.43v-3.1725h2.4165c.621 0 1.1025.135 1.4445.405.342.261.513.6525.513 1.1745zm13.3738 1.62c0-.666-.1215-1.296-.3645-1.89s-.5805-1.1115-1.0125-1.5525-.9495-.7875-1.5525-1.0395c-.603-.261-1.269-.3915-1.998-.3915s-1.395.1305-1.998.3915-1.125.6165-1.566 1.0665c-.441.441-.783.9585-1.026 1.5525s-.3645 1.224-.3645 1.89.1215 1.296.3645 1.89.5805 1.1115 1.0125 1.5525.9495.792 1.5525 1.053c.603.252 1.269.378 1.998.378s1.395-.1305 1.998-.3915 1.125-.612 1.566-1.053c.441-.45.783-.972 1.026-1.566s.3645-1.224.3645-1.89zm-1.7415.027c0 .459-.081.8955-.243 1.3095-.153.405-.369.7605-.648 1.0665-.279.297-.6165.5355-1.0125.7155-.387.171-.8145.2565-1.2825.2565s-.9-.09-1.296-.27-.738-.423-1.026-.729c-.279-.306-.4995-.6615-.6615-1.0665-.153-.414-.2295-.8505-.2295-1.3095s.0765-.891.2295-1.296c.162-.414.3825-.7695.6615-1.0665.279-.306.612-.5445.999-.7155.396-.18.828-.27 1.296-.27s.9.09 1.296.27.7335.423 1.0125.729c.288.306.5085.666.6615 1.08.162.405.243.837.243 1.296zm11.2537-1.566c0-.486-.0855-.9225-.2565-1.3095-.162-.387-.4005-.72-.7155-.999-.306-.279-.684-.4905-1.134-.6345-.441-.153-.936-.2295-1.485-.2295h-3.726v9.45h1.6605v-3.0375h1.8765c.522 0 1.0125-.0675 1.4715-.2025.459-.144.8595-.351 1.2015-.621s.612-.6075.81-1.0125.297-.873.297-1.404zm-1.6875.0405c0 .513-.1845.927-.5535 1.242-.36.306-.855.459-1.485.459h-1.9305v-3.402h1.9305c.621 0 1.116.144 1.485.432.369.279.5535.702.5535 1.269zm10.5836-3.213h-7.0065v9.45h7.074v-1.485h-5.4135v-2.538h4.7385v-1.485h-4.7385v-2.457h5.346zm10.2455 9.45-2.5515-3.5775c.333-.09.6345-.216.9045-.378.279-.171.5175-.3735.7155-.6075.198-.243.351-.5175.459-.8235.117-.315.1755-.6705.1755-1.0665 0-.459-.081-.873-.243-1.242-.162-.378-.396-.693-.702-.945-.297-.261-.666-.459-1.107-.594-.432-.144-.918-.216-1.458-.216h-4.212v9.45h1.6605v-3.294h2.079l2.322 3.294zm-1.9845-6.3585c0 .486-.1755.873-.5265 1.161s-.8235.432-1.4175.432h-2.43v-3.1725h2.4165c.621 0 1.1025.135 1.4445.405.342.261.513.6525.513 1.1745zm7.8668-1.5525h2.9966v-1.539h-7.6676v1.539h2.997v7.911h1.674zm5.0416-1.539v9.45h1.66v-9.45zm11.385 0h-7.006v9.45h7.074v-1.485h-5.414v-2.538h4.739v-1.485h-4.739v-2.457h5.346zm3.631 2.4705c0-.315.135-.5805.405-.7965.27-.225.648-.3375 1.134-.3375.432 0 .859.0855 1.282.2565.423.162.851.4005 1.283.7155l.891-1.2555c-.486-.387-1.008-.6795-1.566-.8775-.549-.207-1.17-.3105-1.863-.3105-.468 0-.9.0675-1.296.2025-.396.126-.738.3105-1.026.5535-.279.243-.5.5355-.662.8775-.162.333-.243.7065-.243 1.1205 0 .441.068.8145.203 1.1205.144.306.346.567.607.783.27.216.599.396.986.54.396.144.846.2745 1.35.3915.441.108.796.2115 1.066.3105.279.099.495.207.648.324.162.108.27.2295.324.3645.063.135.095.288.095.459 0 .369-.153.6615-.459.8775-.297.216-.702.324-1.215.324-.594 0-1.125-.1035-1.593-.3105-.468-.216-.932-.522-1.391-.918l-.999 1.188c.567.513 1.184.8955 1.85 1.1475.666.243 1.363.3645 2.092.3645.495 0 .95-.063 1.364-.189s.769-.3105 1.066-.5535.527-.54.689-.891c.171-.351.256-.7515.256-1.2015 0-.396-.067-.738-.202-1.026-.126-.297-.315-.5535-.567-.7695-.252-.225-.572-.414-.959-.567-.378-.153-.814-.2925-1.309-.4185-.45-.108-.824-.2115-1.121-.3105-.288-.099-.517-.207-.688-.324-.162-.117-.275-.243-.338-.378s-.094-.297-.094-.486z"/><path d="m42.8119 22.413-.1384.0579.0012.0027zm-.7155-.999-.1011.1109.0016.0014zm-1.134-.6345-.0492.1418.0035.0011zm-5.211-.2295v-.15h-.15v.15zm0 9.45h-.15v.15h.15zm1.6605 0v.15h.15v-.15zm0-3.0375v-.15h-.15v.15zm3.348-.2025.0423.1439.0026-.0008zm2.0115-1.6335-.1348-.0659zm-1.944-.1215.0971.1143.0003-.0002zm-3.4155.459h-.15v.15h.15zm0-3.402v-.15h-.15v.15zm3.4155.432-.0923.1183.0018.0013zm2.391 1.2285c0-.5038-.0887-.9614-.2693-1.3701l-.2744.1212c.1614.3653.2437.7807.2437 1.2489zm-.2682-1.3674c-.1707-.4079-.4225-.7595-.7544-1.0534l-.1989.2246c.2982.2641.5234.5785.6766.9446zm-.7528-1.0519c-.324-.2955-.7217-.5169-1.1893-.6666l-.0914.2858c.4323.1383.7906.3399 1.0786.6024zm-1.1859-.6654c-.4593-.1594-.9713-.2378-1.5341-.2378v.3c.5351 0 1.0131.0746 1.4358.2212zm-1.5341-.2378h-3.726v.3h3.726zm-3.876.15v9.45h.3v-9.45zm.15 9.6h1.6605v-.3h-1.6605zm1.8105-.15v-3.0375h-.3v3.0375zm-.15-2.8875h1.8765v-.3h-1.8765zm1.8765 0c.535 0 1.0399-.0692 1.5138-.2086l-.0846-.2878c-.4441.1306-.9203.1964-1.4292.1964zm1.5164-.2094c.4746-.1489.8918-.3639 1.2495-.6464l-.1859-.2354c-.3262.2575-.71.4565-1.1534.5956zm1.2495-.6464c.3603-.2844.6443-.6398.8518-1.0643l-.2695-.1318c-.1885.3855-.4444.7051-.7682.9607zm.8518-1.0643c.2097-.4289.3123-.9201.3123-1.4699h-.3c0 .5122-.0954.957-.2818 1.3381zm-1.6752-1.4294c0 .472-.1674.8432-.5009 1.1279l.1948.2282c.4045-.3453.6061-.8021.6061-1.3561zm-.5007 1.1277c-.3249.2762-.7814.4233-1.3878.4233v.3c.6536 0 1.1871-.1589 1.5821-.4947zm-1.3878.4233h-1.9305v.3h1.9305zm-1.7805.15v-3.402h-.3v3.402zm-.15-3.252h1.9305v-.3h-1.9305zm1.9305 0c.5985 0 1.0575.1387 1.3927.4002l.1846-.2364c-.4029-.3145-.9338-.4638-1.5773-.4638zm1.3945.4016c.323.2443.494.6176.494 1.1494h.3c0-.6022-.198-1.0749-.6131-1.3886zm12.2401 7.3864v.15h.2912l-.1691-.2371zm-2.5515-3.5775-.0392-.1448-.2082.0563.1252.1756zm.9045-.378.0771.1286.0012-.0007zm.7155-.6075.1145.0969.0017-.0021zm.459-.8235-.1407-.0522-.0008.0023zm-.0675-2.3085-.1379.0591.0005.0012zm-.702-.945-.0991.1127.0037.0031zm-1.107-.594-.0475.1423.0035.0011zm-5.67-.216v-.15h-.15v.15zm0 9.45h-.15v.15h.15zm1.6605 0v.15h.15v-.15zm0-3.294v-.15h-.15v.15zm2.079 0 .1226-.0864-.0449-.0636h-.0777zm2.322 3.294-.1226.0864.0448.0636h.0778zm-.5535-5.1975.0951.116zm-3.8475.432h-.15v.15h.15zm0-3.1725v-.15h-.15v.15zm3.861.405-.093.1177.002.0015zm2.6196 7.4459-2.5515-3.5775-.2443.1742 2.5515 3.5775zm-2.6345-3.3456c.3451-.0933.6596-.2244.9425-.3942l-.1543-.2572c-.2571.1542-.5456.2751-.8665.3618zm.9437-.3949c.2917-.1788.5427-.3915.7517-.6385l-.2291-.1938c-.187.221-.413.4133-.6793.5765zm.7534-.6406c.2093-.2569.3707-.5467.4842-.8684l-.2829-.0998c-.1025.2903-.2471.5495-.4338.7786zm.4834-.8661c.1242-.3344.1849-.708.1849-1.1187h-.3c0 .3813-.0564.7187-.1662 1.0143zm.1849-1.1187c0-.4769-.0843-.9118-.2557-1.3023l-.2747.1206c.1526.3475.2304.7406.2304 1.1817zm-.2552-1.3011c-.171-.3992-.4193-.7339-.7445-1.0017l-.1907.2316c.2868.2362.5066.5315.6595.8883zm-.7408-.9986c-.3155-.2772-.7042-.4845-1.1621-.6247l-.0879.2868c.4241.1298.7734.3185 1.0519.5633zm-1.1586-.6236c-.4498-.1499-.9522-.2237-1.5054-.2237v.3c.5267 0 .9964.0702 1.4105.2083zm-1.5054-.2237h-4.212v.3h4.212zm-4.362.15v9.45h.3v-9.45zm.15 9.6h1.6605v-.3h-1.6605zm1.8105-.15v-3.294h-.3v3.294zm-.15-3.144h2.079v-.3h-2.079zm1.9564-.0636 2.322 3.294.2452-.1728-2.322-3.294zm2.4446 3.3576h1.9575v-.3h-1.9575zm-.177-6.5085c0 .4447-.1581.7877-.4717 1.045l.1903.232c.3884-.3187.5814-.7497.5814-1.277zm-.4717 1.045c-.3169.26-.7522.398-1.3223.398v.3c.6178 0 1.1275-.15 1.5126-.466zm-1.3223.398h-2.43v.3h2.43zm-2.28.15v-3.1725h-.3v3.1725zm-.15-3.0225h2.4165v-.3h-2.4165zm2.4165 0c.6012 0 1.0452.1309 1.3515.3727l.1859-.2354c-.3777-.2982-.8967-.4373-1.5374-.4373zm1.3535.3742c.2967.2265.454.5689.454 1.0553h.3c0-.5576-.1848-.9982-.572-1.2937zm13.6133.7853.1388-.0568zm-1.0125-1.5525-.1071.105zm-1.5525-1.0395-.0596.1377.0018.0007zm-3.996 0 .0596.1377zm-1.566 1.0665.1061.1061.001-.0011zm-1.026 1.5525-.1388-.0568zm0 3.78-.1388.0568zm1.0125 1.5525.1072-.105zm1.5525 1.053-.0596.1377.0018.0007zm3.996-.0135.0596.1377zm1.566-1.053.1061.1061.001-.0011zm1.026-1.566.1388.0568zm-1.62-.5535-.1397-.0547-.0006.0017zm-.648 1.0665.1094.1027.0015-.0016zm-1.0125.7155.0606.1372.0015-.0006zm-2.5785-.0135.0621-.1366zm-1.026-.729-.1108.1011.0016.0017zm-.6615-1.0665-.1407.052.0014.0037zm0-2.6055-.1397-.0547-.0006.0017zm.6615-1.0665.1094.1027.0015-.0016zm.999-.7155.0606.1372.0015-.0006zm2.592 0 .0621-.1366zm1.0125.729-.1108.1011.0016.0017zm.6615 1.08-.1407.052.0014.0037zm2.1345 1.269c0-.6847-.125-1.3341-.3757-1.9468l-.2776.1136c.2353.5753.3533 1.1859.3533 1.8332zm-.3757-1.9468c-.25-.6112-.598-1.1453-1.0441-1.6007l-.2143.21c.4178.4266.7448.9275.9808 1.5043zm-1.0441-1.6007c-.4469-.4561-.9814-.8136-1.6018-1.0729l-.1157.2768c.5856.2447 1.086.5802 1.5032 1.0061zm-1.6001-1.0722c-.6238-.2699-1.3103-.4038-2.0576-.4038v.3c.7108 0 1.3562.1271 1.9384.3792zm-2.0576-.4038c-.7472 0-1.4338.1339-2.0576.4038l.1192.2754c.5822-.2521 1.2277-.3792 1.9384-.3792zm-2.0576.4038c-.62.2684-1.1584.6348-1.6135 1.0992l.2142.21c.4269-.4356.9325-.7802 1.5185-1.0338zm-1.6125 1.0981c-.4554.4555-.8084.9899-1.0587 1.6018l.2776.1136c.2357-.5761.5668-1.0767.9933-1.5032zm-1.0587 1.6018c-.2507.6127-.3757 1.2621-.3757 1.9468h.3c0-.6473.118-1.2579.3533-1.8332zm-.3757 1.9468c0 .6847.125 1.3341.3757 1.9468l.2776-.1136c-.2353-.5753-.3533-1.1859-.3533-1.8332zm.3757 1.9468c.25.6112.598 1.1453 1.0442 1.6007l.2143-.21c-.4179-.4266-.7449-.9275-.9809-1.5043zm1.0442 1.6007c.4464.4557.9804.8174 1.6 1.0857l.1192-.2754c-.5863-.2537-1.0874-.594-1.5049-1.0203zm1.6018 1.0864c.6233.2605 1.3093.3896 2.0558.3896v-.3c-.7114 0-1.3575-.1229-1.9401-.3664zm2.0558.3896c.7473 0 1.4338-.1339 2.0576-.4038l-.1192-.2754c-.5822.2521-1.2276.3792-1.9384.3792zm2.0576-.4038c.6194-.2681 1.1574-.6296 1.6125-1.0846l-.2122-.2122c-.4269.427-.9329.7675-1.5195 1.0214zm1.6135-1.0857c.4549-.4641.8075-1.0026 1.0577-1.6142l-.2776-.1136c-.2358.5764-.5672 1.0819-.9943 1.5178zm1.0577-1.6142c.2507-.6127.3757-1.2621.3757-1.9468h-.3c0 .6473-.118 1.2579-.3533 1.8332zm-1.6658-1.9198c0 .4409-.0777.8588-.2327 1.2548l.2794.1094c.169-.432.2533-.8871.2533-1.3642zm-.2333 1.2565c-.1466.3881-.3529.7271-.6185 1.0184l.2217.2022c.2923-.3207.518-.6927.6774-1.1146zm-.617 1.0168c-.2647.2818-.5858.5092-.9653.6816l.1242.2732c.4126-.1876.7665-.4372 1.0597-.7494zm-.9638.681c-.366.1617-.7725.2437-1.2219.2437v.3c.4867 0 .9351-.089 1.3431-.2693zm-1.2219.2437c-.4482 0-.8589-.0861-1.2339-.2566l-.1242.2732c.417.1895.8704.2834 1.3581.2834zm-1.2339-.2566c-.3789-.1722-.7047-.4039-.9789-.6952l-.2184.2056c.3018.3207.66.575 1.0731.7628zm-.9772-.6935c-.2663-.292-.4774-.6319-.6331-1.0211l-.2786.1114c.1684.4208.3982.7919.69 1.1119zm-.6317-1.0174c-.1466-.3967-.2202-.8155-.2202-1.2575h-.3c0 .476.0794.9302.2388 1.3615zm-.2202-1.2575c0-.442.0736-.8559.2198-1.243l-.2806-.106c-.1598.4229-.2392.873-.2392 1.349zm.2192-1.2413c.1557-.3979.3664-.7367.6311-1.0185l-.2186-.2054c-.2932.3122-.5235.6844-.6919 1.1145zm.6327-1.0201c.2646-.2903.5804-.5166.9487-.6794l-.1212-.2744c-.4057.1792-.7559.4299-1.0492.7516zm.9502-.68c.375-.1705.7857-.2566 1.2339-.2566v-.3c-.4877 0-.9411.0939-1.3581.2834zm1.2339-.2566c.4483 0 .8589.0861 1.2339.2566l.1242-.2732c-.417-.1895-.8703-.2834-1.3581-.2834zm1.2339.2566c.3785.172.6991.4032.9638.6935l.2217-.2022c-.2934-.3217-.6478-.5765-1.0613-.7645zm.9654.6952c.2735.2906.4836.6331.63 1.0292l.2814-.104c-.1596-.4319-.3905-.8094-.693-1.1308zm.6314 1.0329c.1546.3864.2323.7994.2323 1.2403h.3c0-.4771-.0843-.9281-.2537-1.3517zm11.3795-1.6352-.1384.0579.0012.0027zm-.7155-.999-.101.1109.0016.0014zm-1.134-.6345-.0491.1418.0034.0011zm-5.211-.2295v-.15h-.15v.15zm0 9.45h-.15v.15h.15zm1.6605 0v.15h.15v-.15zm0-3.0375v-.15h-.15v.15zm3.348-.2025.0424.1439.0025-.0008zm2.0115-1.6335-.1347-.0659zm-1.944-.1215.0972.1143.0002-.0002zm-3.4155.459h-.15v.15h.15zm0-3.402v-.15h-.15v.15zm3.4155.432-.0923.1183.0019.0013zm2.391 1.2285c0-.5038-.0887-.9614-.2693-1.3701l-.2744.1212c.1614.3653.2437.7807.2437 1.2489zm-.2681-1.3674c-.1707-.4079-.4226-.7595-.7544-1.0534l-.1989.2246c.2981.2641.5233.5785.6766.9446zm-.7528-1.0519c-.324-.2955-.7217-.5169-1.1893-.6666l-.0915.2858c.4324.1383.7907.3399 1.0787.6024zm-1.1859-.6654c-.4593-.1594-.9713-.2378-1.5342-.2378v.3c.5352 0 1.0132.0746 1.4359.2212zm-1.5342-.2378h-3.726v.3h3.726zm-3.876.15v9.45h.3v-9.45zm.15 9.6h1.6605v-.3h-1.6605zm1.8105-.15v-3.0375h-.3v3.0375zm-.15-2.8875h1.8765v-.3h-1.8765zm1.8765 0c.5351 0 1.0399-.0692 1.5139-.2086l-.0847-.2878c-.4441.1306-.9202.1964-1.4292.1964zm1.5164-.2094c.4747-.1489.8918-.3639 1.2496-.6464l-.1859-.2354c-.3263.2575-.7101.4565-1.1535.5956zm1.2496-.6464c.3603-.2844.6443-.6398.8518-1.0643l-.2695-.1318c-.1885.3855-.4445.7051-.7682.9607zm.8518-1.0643c.2097-.4289.3122-.9201.3122-1.4699h-.3c0 .5122-.0954.957-.2817 1.3381zm-1.6753-1.4294c0 .472-.1674.8432-.5008 1.1279l.1947.2282c.4045-.3453.6061-.8021.6061-1.3561zm-.5006 1.1277c-.325.2762-.7815.4233-1.3879.4233v.3c.6537 0 1.1872-.1589 1.5822-.4947zm-1.3879.4233h-1.9305v.3h1.9305zm-1.7805.15v-3.402h-.3v3.402zm-.15-3.252h1.9305v-.3h-1.9305zm1.9305 0c.5985 0 1.0576.1387 1.3928.4002l.1845-.2364c-.4028-.3145-.9337-.4638-1.5773-.4638zm1.3946.4016c.323.2443.4939.6176.4939 1.1494h.3c0-.6022-.198-1.0749-.613-1.3886zm11.2275-2.0636h.15v-.15h-.15zm-7.0065 0v-.15h-.15v.15zm0 9.45h-.15v.15h.15zm7.074 0v.15h.15v-.15zm0-1.485h.15v-.15h-.15zm-5.4135 0h-.15v.15h.15zm0-2.538v-.15h-.15v.15zm4.7385 0v.15h.15v-.15zm0-1.485h.15v-.15h-.15zm-4.7385 0h-.15v.15h.15zm0-2.457v-.15h-.15v.15zm5.346 0v.15h.15v-.15zm0-1.635h-7.0065v.3h7.0065zm-7.1565.15v9.45h.3v-9.45zm.15 9.6h7.074v-.3h-7.074zm7.224-.15v-1.485h-.3v1.485zm-.15-1.635h-5.4135v.3h5.4135zm-5.2635.15v-2.538h-.3v2.538zm-.15-2.388h4.7385v-.3h-4.7385zm4.8885-.15v-1.485h-.3v1.485zm-.15-1.635h-4.7385v.3h4.7385zm-4.5885.15v-2.457h-.3v2.457zm-.15-2.307h5.346v-.3h-5.346zm5.496-.15v-1.485h-.3v1.485zm10.0955 7.965v.15h.2912l-.1691-.2371zm-2.5515-3.5775-.0392-.1448-.2082.0563.1252.1756zm.9045-.378.0771.1286.0012-.0007zm.7155-.6075.1145.0969.0017-.0021zm.459-.8235-.1407-.0522-.0008.0023zm-.0675-2.3085-.1379.0591.0005.0012zm-.702-.945-.0991.1127.0037.0031zm-1.107-.594-.0475.1423.0036.0011zm-5.67-.216v-.15h-.15v.15zm0 9.45h-.15v.15h.15zm1.6605 0v.15h.15v-.15zm0-3.294v-.15h-.15v.15zm2.079 0 .1226-.0864-.0449-.0636h-.0777zm2.322 3.294-.1226.0864.0448.0636h.0778zm-.5535-5.1975.0951.116zm-3.8475.432h-.15v.15h.15zm0-3.1725v-.15h-.15v.15zm3.861.405-.093.1177.002.0015zm2.6196 7.4459-2.5515-3.5775-.2443.1742 2.5515 3.5775zm-2.6345-3.3456c.3451-.0933.6596-.2244.9425-.3942l-.1543-.2572c-.2571.1542-.5456.2751-.8665.3618zm.9437-.3949c.2917-.1788.5427-.3915.7517-.6385l-.229-.1938c-.1871.221-.4131.4133-.6794.5765zm.7534-.6406c.2093-.2569.3707-.5467.4842-.8684l-.2829-.0998c-.1024.2903-.2471.5495-.4338.7786zm.4834-.8661c.1242-.3344.1849-.708.1849-1.1187h-.3c0 .3813-.0564.7187-.1661 1.0143zm.1849-1.1187c0-.4769-.0843-.9118-.2557-1.3023l-.2747.1206c.1526.3475.2304.7406.2304 1.1817zm-.2552-1.3011c-.171-.3992-.4193-.7339-.7445-1.0017l-.1907.2316c.2868.2362.5066.5315.6595.8883zm-.7408-.9986c-.3154-.2772-.7041-.4845-1.1621-.6247l-.0878.2868c.424.1298.7733.3185 1.0518.5633zm-1.1586-.6236c-.4498-.1499-.9522-.2237-1.5054-.2237v.3c.5268 0 .9964.0702 1.4105.2083zm-1.5054-.2237h-4.212v.3h4.212zm-4.362.15v9.45h.3v-9.45zm.15 9.6h1.6605v-.3h-1.6605zm1.8105-.15v-3.294h-.3v3.294zm-.15-3.144h2.079v-.3h-2.079zm1.9564-.0636 2.322 3.294.2452-.1728-2.322-3.294zm2.4446 3.3576h1.9575v-.3h-1.9575zm-.177-6.5085c0 .4447-.1581.7877-.4717 1.045l.1903.232c.3884-.3187.5814-.7497.5814-1.277zm-.4717 1.045c-.3168.26-.7522.398-1.3223.398v.3c.6178 0 1.1275-.15 1.5126-.466zm-1.3223.398h-2.43v.3h2.43zm-2.28.15v-3.1725h-.3v3.1725zm-.15-3.0225h2.4165v-.3h-2.4165zm2.4165 0c.6012 0 1.0452.1309 1.3515.3727l.1859-.2354c-.3777-.2982-.8967-.4373-1.5374-.4373zm1.3535.3742c.2967.2265.454.5689.454 1.0553h.3c0-.5576-.1848-.9982-.572-1.2937zm8.4708-.4972v-.15h-.15v.15zm2.9966 0v.15h.15v-.15zm0-1.539h.15v-.15h-.15zm-7.6676 0v-.15h-.15v.15zm0 1.539h-.15v.15h.15zm2.997 0h.15v-.15h-.15zm0 7.911h-.15v.15h.15zm1.674 0v.15h.15v-.15zm0-7.761h2.9966v-.3h-2.9966zm3.1466-.15v-1.539h-.3v1.539zm-.15-1.689h-7.6676v.3h7.6676zm-7.8176.15v1.539h.3v-1.539zm.15 1.689h2.997v-.3h-2.997zm2.847-.15v7.911h.3v-7.911zm.15 8.061h1.674v-.3h-1.674zm1.824-.15v-7.911h-.3v7.911zm4.8916-9.45v-.15h-.15v.15zm0 9.45h-.15v.15h.15zm1.66 0v.15h.15v-.15zm0-9.45h.15v-.15h-.15zm-1.81 0v9.45h.3v-9.45zm.15 9.6h1.66v-.3h-1.66zm1.81-.15v-9.45h-.3v9.45zm-.15-9.6h-1.66v.3h1.66zm9.725.15h.15v-.15h-.15zm-7.006 0v-.15h-.15v.15zm0 9.45h-.15v.15h.15zm7.074 0v.15h.15v-.15zm0-1.485h.15v-.15h-.15zm-5.414 0h-.15v.15h.15zm0-2.538v-.15h-.15v.15zm4.739 0v.15h.15v-.15zm0-1.485h.15v-.15h-.15zm-4.739 0h-.15v.15h.15zm0-2.457v-.15h-.15v.15zm5.346 0v.15h.15v-.15zm0-1.635h-7.006v.3h7.006zm-7.156.15v9.45h.3v-9.45zm.15 9.6h7.074v-.3h-7.074zm7.224-.15v-1.485h-.3v1.485zm-.15-1.635h-5.414v.3h5.414zm-5.264.15v-2.538h-.3v2.538zm-.15-2.388h4.739v-.3h-4.739zm4.889-.15v-1.485h-.3v1.485zm-.15-1.635h-4.739v.3h4.739zm-4.589.15v-2.457h-.3v2.457zm-.15-2.307h5.346v-.3h-5.346zm5.496-.15v-1.485h-.3v1.485zm3.886.189.094.1172.002-.002zm2.416-.081-.056.1391.003.001zm1.283.7155-.088.1212.122.0895.088-.1239zm.891-1.2555.122.0868.082-.1157-.111-.0884zm-1.566-.8775-.053.1404.003.001zm-3.159-.108.045.143.003-.001zm-1.026.5535-.097-.1147-.002.0016zm-.662.8775.135.0656.001-.0014zm-.04 2.241-.137.0606.001.0033zm.607.783-.095.1156.002.0015zm.986.54-.052.1406.001.0004zm1.35.3915.036-.1457-.002-.0004zm1.066.3105-.051.1408.001.0006zm.648.324-.091.1194.008.0054zm.324.3645-.139.0558.003.0076zm-.364 1.3365-.087-.1226-.001.0013zm-2.808.0135-.063.1362.002.001zm-1.391-.918.098-.1136-.115-.0992-.097.1163zm-.999 1.188-.114-.0965-.094.1107.108.097zm1.85 1.1475-.053.1403.001.0006zm4.522-.378.095.1161zm.689-.891-.135-.0657-.001.0028zm.054-2.2275-.138.0586.002.0051zm-.567-.7695-.1.1119.002.002zm-.959-.567-.056.139.001.0005zm-1.309-.4185.037-.1454-.002-.0005zm-1.121-.3105-.048.1419.001.0004zm-.688-.324-.088.1216.003.0022zm-.338-.378.136-.0634zm.056-.486c0-.2646.11-.4887.349-.6794l-.188-.2342c-.301.2413-.461.5482-.461.9136zm.351-.6813c.234-.1952.574-.3027 1.038-.3027v-.3c-.508 0-.924.1175-1.23.3723zm1.038-.3027c.412 0 .82.0814 1.226.2456l.113-.2782c-.44-.1778-.887-.2674-1.339-.2674zm1.229.2466c.408.1565.824.388 1.248.6966l.176-.2424c-.441-.3214-.88-.5669-1.317-.7344zm1.458.6622.891-1.2555-.244-.1736-.891 1.2555zm.862-1.4596c-.498-.3969-1.035-.6977-1.609-.9016l-.1.2828c.541.1921 1.049.4763 1.522.8534zm-1.606-.9006c-.569-.2144-1.208-.3201-1.916-.3201v.3c.678 0 1.281.1013 1.81.3009zm-1.916-.3201c-.483 0-.931.0696-1.345.2105l.097.284c.379-.1291.794-.1945 1.248-.1945zm-1.342.2096c-.412.1313-.772.3248-1.077.5818l.194.2292c.271-.229.595-.4045.974-.5252zm-1.079.5833c-.295.2569-.528.5661-.698.9264l.271.1284c.153-.3237.361-.5995.624-.8286zm-.697.925c-.174.3557-.259.7521-.259 1.1861h.3c0-.394.077-.7446.228-1.0549zm-.259 1.1861c0 .4555.07.8509.216 1.181l.274-.121c-.124-.2819-.19-.6335-.19-1.06zm.217 1.1844c.154.326.37.6046.648.8347l.191-.2312c-.244-.2019-.433-.4453-.567-.7313zm.65.8362c.284.2277.627.415 1.027.5635l.104-.2812c-.375-.1395-.689-.3122-.944-.5165zm1.028.5639c.402.1464.858.2785 1.367.3966l.068-.2922c-.5-.1159-.944-.2448-1.333-.3864zm1.365.3962c.439.1073.788.2093 1.051.3056l.103-.2816c-.277-.1017-.639-.2067-1.082-.3154zm1.052.3062c.272.0962.471.1979.607.3018l.183-.2384c-.171-.1301-.403-.2444-.689-.3462zm.615.3074c.145.0968.229.1967.268.2954l.279-.1114c-.069-.1713-.202-.3144-.38-.4336zm.271.3031c.053.1124.081.2433.081.3956h.3c0-.1897-.035-.3648-.109-.5224zm.081.3956c0 .3194-.129.5666-.396.755l.173.245c.345-.2436.523-.5814.523-1zm-.397.7562c-.263.1912-.634.2953-1.127.2953v.3c.532 0 .972-.1119 1.303-.3527zm-1.127.2953c-.577 0-1.086-.1004-1.532-.2977l-.122.2744c.49.2167 1.042.3233 1.654.3233zm-1.53-.2967c-.454-.2092-.905-.507-1.356-.8954l-.196.2272c.468.4036.943.7178 1.426.9406zm-1.568-.8783-.999 1.188.229.193.999-1.188zm-.985 1.3957c.58.5247 1.212.9175 1.897 1.1766l.106-.2806c-.647-.2449-1.248-.6171-1.802-1.1184zm1.898 1.1772c.683.2492 1.398.3736 2.144.3736v-.3c-.712 0-1.392-.1186-2.041-.3554zm2.144.3736c.508 0 .978-.0646 1.408-.1955l-.088-.287c-.398.1211-.837.1825-1.32.1825zm1.408-.1955c.43-.131.803-.324 1.117-.5809l-.19-.2322c-.28.2291-.617.4051-1.015.5261zm1.117-.5809c.315-.2575.559-.5728.73-.9442l-.272-.1258c-.153.3306-.368.6093-.648.8378zm.729-.9414c.182-.3744.271-.7979.271-1.2672h-.3c0 .4307-.081.8082-.241 1.1358zm.271-1.2672c0-.4128-.07-.7775-.216-1.0897l-.272.1274c.124.2638.188.5831.188.9623zm-.214-1.0846c-.135-.3189-.338-.5942-.607-.8248l-.196.2278c.235.2014.41.4391.527.7142zm-.605-.8228c-.268-.2391-.604-.4366-1.003-.5946l-.111.279c.374.148.678.3285.914.5394zm-1.002-.5941c-.386-.1561-.829-.2976-1.329-.4249l-.074.2908c.49.1247.92.2622 1.29.4121zm-1.331-.4254c-.448-.1074-.817-.2097-1.108-.3069l-.095.2846c.302.1008.68.2055 1.133.3141zm-1.107-.3065c-.28-.0964-.496-.1992-.652-.3059l-.17.2476c.186.1273.429.2405.725.3421zm-.649-.3037c-.148-.1069-.241-.2146-.29-.3198l-.272.1268c.077.1648.21.3091.386.4362zm-.29-.3198c-.051-.1106-.08-.2498-.08-.4226h-.3c0 .2052.034.39.108.5494z"/></g><g clip-rule="evenodd" fill="#012d7a" fill-rule="evenodd" filter="url(#c)"><path d="m5.08984 18.2953v-.0006h.00065l3.99935-3.3504v3.3504 3.3515 5.1485h-4z"/><path d="m17.2917 2.01953-6.7019 6.22315.0002.00017h-.0002v13.65725l6.7019 5v-12.4343-6.22295z"/><path d="m18.7917 2 5.04 3.9493-.0009.00077h.0051v19.60003h-5.04v-15.65474l-.0042.00325z"/><path d="m28.3359 19.0137-3-2.6328v2.6328 2.6329 6.3671h3z"/></g><g filter="url(#d)"><path clip-rule="evenodd" d="m22.3683 21.8367-4.011 3.9498 2.0193 2.0505 2.1572-2.1243 4.7723 4.6871h3.8956z" fill="#fff" fill-rule="evenodd"/></g><g filter="url(#e)"><path clip-rule="evenodd" d="m14.5416 21.7355-2.0665-1.8922-11.4751 10.5564h4.15751l7.37629-6.8105 7.2972 6.8106h4.1575l-9.4483-8.663z" fill="#fff" fill-rule="evenodd"/></g><g fill="#012d7a"><path d="m11.3 26.4002h1.18424v1.18424h-1.18424z"/><path d="m11.3 27.7154h1.18424v1.18424h-1.18424z"/><path d="m12.6158 26.3999h1.18424v1.18424h-1.18424z"/><path d="m12.6158 27.7154h1.18424v1.18424h-1.18424z"/></g></svg>