<svg fill="none" height="24" viewBox="0 0 24 24" width="24" xmlns="http://www.w3.org/2000/svg"><path d="m2.19421 21.5962c.26421 0 .53898-.0866.87717-.2597l5.37924-2.6346 5.84428 2.9808c.3804.1923.7926.2885 1.1836.2885.3699 0 .7398-.0866 1.0568-.25l5.5272-2.8558c.6341-.3173.9195-.7789.9195-1.4231v-12.95192c0-.71153-.4333-1.10576-1.1942-1.10576-.2642 0-.539.07692-.8878.25l-5.6011 2.83653-5.73861-3.20192c-.32762-.17308-.69751-.26923-1.06739-.26923-.38046 0-.76092.09615-1.08853.26923l-5.4955 2.84615c-.62353.32693-.90887.78847-.90887 1.4327v12.93272c0 .7115.4333 1.1154 1.19421 1.1154zm5.56948-4.4231-4.76629 2.3846c-.05284.0192-.10568.0481-.15852.0481-.08455 0-.13739-.0577-.13739-.1539v-11.52882c0-.23077.09511-.39423.34875-.52885l4.33299-2.30769c.13739-.06731.25364-.125.38046-.19231zm1.70149.1538v-12.23075c.10568.0577.2325.11539.33818.17308l4.71344 2.61538v12.01919c-.148-.0769-.3065-.1442-.465-.2211zm6.75312 2.75v-12.28844l4.7663-2.36538c.0528-.02885.1057-.04808.1479-.04808.0951 0 .148.05769.148.15385v11.52885c0 .2404-.1057.4038-.3488.5385l-4.2378 2.2403c-.1586.0866-.3171.1731-.4756.2404z" fill="#1b7685" stroke="#1b7685" stroke-width=".3"/></svg>