<svg fill="none" height="30" viewBox="0 0 30 30" width="30" xmlns="http://www.w3.org/2000/svg"><g stroke="#1b7685"><rect height="28" rx="14" stroke-width="2" width="28" x="1" y="1"/><path d="m15 7.5c.9946 0 1.9484.39509 2.6516 1.09835.7033.70326 1.0984 1.65705 1.0984 2.65165s-.3951 1.9484-1.0984 2.6517c-.7032.7032-1.657 1.0983-2.6516 1.0983s-1.9484-.3951-2.6517-1.0983c-.7032-.7033-1.0983-1.6571-1.0983-2.6517s.3951-1.94839 1.0983-2.65165c.7033-.70326 1.6571-1.09835 2.6517-1.09835zm0 9.375c4.1437 0 7.5 1.6781 7.5 3.75v1.875h-15v-1.875c0-2.0719 3.3562-3.75 7.5-3.75z" fill="#1b7685" stroke-width="1.5"/></g></svg>