<svg fill="none" height="30" viewBox="0 0 30 30" width="30" xmlns="http://www.w3.org/2000/svg"><g fill="#fff" stroke="#1b7685" stroke-width="2"><rect height="28" rx="14" width="28" x="1" y="1"/><path d="m22 22.5h1v-1-1.75c0-1.5495-1.2293-2.683-2.6025-3.3696-1.124-.562-2.5414-.9379-4.0923-1.0738.7022-.2129 1.3484-.5963 1.8768-1.1246.8439-.8439 1.318-1.9885 1.318-3.182 0-1.19347-.4741-2.33807-1.318-3.18198s-1.9885-1.31802-3.182-1.31802-2.3381.47411-3.182 1.31802-1.318 1.98851-1.318 3.18198c0 1.1935.4741 2.3381 1.318 3.182.5284.5283 1.1746.9117 1.8768 1.1246-1.5509.1359-2.9683.5118-4.09233 1.0738-1.37322.6866-2.60247 1.8201-2.60247 3.3696v1.75 1h1z"/></g></svg>